<svg width="30" height="30" viewBox="0 0 30 30" fill="none" xmlns="http://www.w3.org/2000/svg">
<g clip-path="url(#clip0)">
<path d="M15.0008 7.81948C15.4861 7.81948 15.8794 7.42611 15.8794 6.94087C15.8794 6.45562 15.4861 6.06226 15.0008 6.06226C14.5156 6.06226 14.1222 6.45562 14.1222 6.94087C14.1222 7.42611 14.5156 7.81948 15.0008 7.81948Z" fill="white"/>
<path d="M9.91964 21.134C10.785 21.134 11.4865 20.4325 11.4865 19.5671C11.4865 18.7018 10.785 18.0002 9.91964 18.0002C9.05429 18.0002 8.35278 18.7018 8.35278 19.5671C8.35278 20.4325 9.05429 21.134 9.91964 21.134Z" fill="white"/>
<path d="M21.6092 15.4929C22.4746 15.4929 23.1761 14.7913 23.1761 13.926C23.1761 13.0606 22.4746 12.3591 21.6092 12.3591C20.7439 12.3591 20.0424 13.0606 20.0424 13.926C20.0424 14.7913 20.7439 15.4929 21.6092 15.4929Z" fill="white"/>
<path d="M15.0008 0C10.9762 0 7.21157 1.59346 4.43762 4.35381C6.95341 4.69008 9.06495 6.86344 9.06495 9.66469C9.06495 14.36 3.44844 16.7385 0.0698117 13.6061C-0.880052 23.9354 8.64858 32.0583 18.6699 29.537C17.5357 28.5393 16.8459 27.0966 16.8459 25.5088C16.8459 22.5538 19.2504 20.1493 22.2054 20.1493C24.5473 20.1493 26.5007 21.6407 27.2387 23.6608C29.044 21.1199 29.9958 18.1349 29.9958 14.9948C29.9957 6.70711 23.2892 0 15.0008 0V0ZM9.91954 22.8912C8.08679 22.8912 6.59546 21.4 6.59546 19.5672C6.59546 17.7344 8.08673 16.2431 9.91954 16.2431C11.7524 16.2431 13.2436 17.7343 13.2436 19.5672C13.2436 21.3999 11.7523 22.8912 9.91954 22.8912ZM15.0008 9.5768C13.5475 9.5768 12.3649 8.3942 12.3649 6.94096C12.3649 5.48771 13.5475 4.30512 15.0008 4.30512C16.454 4.30512 17.6366 5.48771 17.6366 6.94096C17.6366 8.3942 16.454 9.5768 15.0008 9.5768ZM21.6091 17.2499C19.7758 17.2499 18.285 15.7587 18.285 13.9259C18.285 12.093 19.7757 10.6018 21.6091 10.6018C23.4419 10.6018 24.9332 12.093 24.9332 13.9259C24.9332 15.7587 23.4419 17.2499 21.6091 17.2499Z" fill="white"/>
<path d="M7.30769 9.66473C7.30769 7.42223 5.263 5.64426 2.88597 6.15443C1.75904 7.69141 0.944233 9.41524 0.474487 11.2574C2.16023 14.6903 7.30769 13.4269 7.30769 9.66473Z" fill="white"/>
<path d="M22.2055 21.9065C19.3306 21.9065 17.5948 25.1385 19.2358 27.5401H19.2364C19.6152 28.0948 20.1532 28.5503 20.8015 28.8241C22.6758 28.0339 24.3879 26.859 25.8043 25.3905C25.7477 23.4958 24.195 21.9065 22.2055 21.9065Z" fill="white"/>
</g>
<defs>
<clipPath id="clip0">
<rect width="30" height="30" fill="white"/>
</clipPath>
</defs>
</svg>
