<svg width="25" height="25" viewBox="0 0 25 25" fill="none" xmlns="http://www.w3.org/2000/svg">
<path d="M17.5432 8.03589H7.45673L12.5 12.3587L17.5432 8.03589Z" fill="#303960"/>
<path d="M12.5 13.3927C12.3934 13.3927 12.2903 13.3545 12.2094 13.285L6.69641 8.55957V16.9641H18.3036V8.55957L12.7906 13.285C12.7097 13.3545 12.6066 13.3927 12.5 13.3927Z" fill="#303960"/>
<path d="M12.5 0C5.59649 0 0 5.59649 0 12.5C0 19.4035 5.59649 25 12.5 25C19.4035 25 25 19.4035 25 12.5C24.9922 5.59976 19.4002 0.00784738 12.5 0ZM19.1964 17.4107C19.1964 17.6573 18.9965 17.8571 18.75 17.8571H6.25C6.00346 17.8571 5.80357 17.6573 5.80357 17.4107V7.58929C5.80357 7.34275 6.00346 7.14286 6.25 7.14286H18.75C18.9965 7.14286 19.1964 7.34275 19.1964 7.58929V17.4107Z" fill="#303960"/>
</svg>
