<svg width="30" height="30" viewBox="0 0 30 30" fill="none" xmlns="http://www.w3.org/2000/svg">
<g clip-path="url(#clip0)">
<path d="M19.5978 29.9943H19.8818H29.3523C29.4351 29.9943 29.5179 29.9529 29.5712 29.8878C29.6243 29.8227 29.6481 29.734 29.6243 29.6512L27.8734 21.8134C27.4002 19.3053 25.1701 18.5244 24.3597 18.3233C24.5608 17.223 24.478 16.4304 24.1113 15.9749C23.9338 15.7501 23.7208 15.6496 23.5552 15.6082V14.1057L24.6318 12.6269C24.6673 12.5795 24.685 12.5204 24.685 12.4612V7.51009C24.685 7.42728 24.6495 7.34446 24.5785 7.29122L23.3895 6.32111C21.5854 0.458994 17.1015 0.00351138 15.7646 0.00351138C15.5458 0.00351138 15.4097 0.0153421 15.4038 0.0153421H14.6526C14.6526 0.0153421 8.83183 -0.6176 6.69639 6.32111L5.55472 7.29122C5.48966 7.34446 5.45416 7.42136 5.45416 7.50418V12.4553C5.45416 12.5145 5.47191 12.5736 5.5074 12.621L6.584 14.0998V15.5964C6.40654 15.6437 6.16992 15.7443 5.97471 15.9868C5.60205 16.4482 5.51332 17.235 5.70852 18.3115C4.90403 18.5126 2.68577 19.2876 2.21846 21.7898L0.372866 29.6513C0.35512 29.7341 0.372866 29.8228 0.426104 29.8938C0.479342 29.9589 0.562157 30.0003 0.644972 30.0003H9.97941H10.2634C10.4172 30.0003 10.5473 29.876 10.5473 29.7164V23.7715H14.4928H15.5813H19.5977V29.7104V29.9943H19.5978ZM8.84958 13.0291V7.08413C8.84958 7.01314 8.87916 6.94216 8.92648 6.88892C11.0442 4.70024 14.5047 4.59376 15.179 4.59376H15.2914H15.8356C16.4567 4.59376 19.6569 4.70616 21.7805 6.88892C21.8337 6.94216 21.8574 7.01314 21.8574 7.08413V9.82885C21.6859 10.0359 21.4966 10.2311 21.2895 10.4145C21.1002 10.586 20.8991 10.7457 20.6802 10.8995C19.6806 11.5739 18.4738 11.9465 17.2138 11.9939C17.0363 11.2249 16.3501 10.6452 15.5279 10.6452C14.5755 10.6452 13.7947 11.4201 13.7947 12.3784C13.7947 13.3367 14.5696 14.1116 15.5279 14.1116C16.2141 14.1116 16.7997 13.7093 17.0836 13.1296C18.6099 13.106 20.0769 12.6682 21.2895 11.8519C21.2954 11.846 21.3073 11.8401 21.3131 11.8342C21.5024 11.704 21.6799 11.568 21.8515 11.426V13.0231C21.8515 13.0409 21.8515 13.0645 21.8455 13.0823C21.81 13.2479 21.3368 14.7208 16.2141 14.7208H15.5575C10.4525 14.7208 8.9796 13.2834 8.92045 13.2243C8.87916 13.1711 8.84958 13.1001 8.84958 13.0291Z" fill="white"/>
<path d="M12.7418 5.46895C12.6531 5.4512 12.5526 5.44529 12.4579 5.47487C10.3284 6.16105 9.63037 6.9123 9.55347 6.99511C9.50614 7.04835 9.47065 7.1075 9.44699 7.16666C9.42333 7.23173 9.4115 7.29679 9.4115 7.36778V9.62744C9.4115 9.94096 9.66586 10.1953 9.97937 10.1953C10.2929 10.1953 10.5472 9.94096 10.5472 9.62744V7.62214C10.8194 7.4151 11.4878 6.97737 12.8069 6.55146C13.1027 6.45681 13.2683 6.13739 13.1737 5.84162C13.1027 5.64044 12.9311 5.50444 12.7418 5.46895Z" fill="white"/>
</g>
<defs>
<clipPath id="clip0">
<rect width="30" height="30" fill="white"/>
</clipPath>
</defs>
</svg>
