<svg width="25" height="25" viewBox="0 0 25 25" fill="none" xmlns="http://www.w3.org/2000/svg">
<path d="M12.5 0C5.59649 0 0 5.59649 0 12.5C0 19.4035 5.59649 25 12.5 25C19.4035 25 25 19.4035 25 12.5C24.9922 5.59976 19.4002 0.00784738 12.5 0ZM19.5982 11.8066L18.7053 13.5923C18.6295 13.7445 18.4736 13.8402 18.3036 13.8393H13.1598C12.5076 15.6843 10.621 16.791 8.69228 16.4601C6.76357 16.1292 5.35387 14.4568 5.35387 12.5C5.35387 10.5432 6.76357 8.87081 8.69228 8.53991C10.621 8.20901 12.5076 9.31571 13.1598 11.1607H15.1786V9.82143C15.1786 9.57489 15.3785 9.375 15.625 9.375H17.4107C17.6573 9.375 17.8571 9.57489 17.8571 9.82143V11.1607H19.1964C19.3516 11.1598 19.4959 11.2396 19.5779 11.3713C19.6599 11.5032 19.6675 11.668 19.5982 11.8066Z" fill="#303960"/>
<path d="M9.82145 12.4999C9.82145 12.7464 9.62156 12.9463 9.37502 12.9463C9.12848 12.9463 8.92859 12.7464 8.92859 12.4999C8.92859 12.2534 9.12848 12.0535 9.37502 12.0535C9.62156 12.0535 9.82145 12.2534 9.82145 12.4999Z" fill="#303960"/>
<path d="M16.9643 11.6072V10.2679H16.0714V11.6072C16.0714 11.8537 15.8715 12.0536 15.625 12.0536H12.8294C12.626 12.0536 12.4481 11.9158 12.3973 11.7188C12.0039 10.1951 10.5388 9.20172 8.97784 9.39986C7.41665 9.59823 6.24652 10.9264 6.24652 12.5C6.24652 14.0736 7.41665 15.4018 8.97784 15.6002C10.5388 15.7983 12.0039 14.805 12.3973 13.2813C12.4481 13.0842 12.626 12.9465 12.8294 12.9465H18.0276L18.474 12.0536H17.4107C17.1642 12.0536 16.9643 11.8537 16.9643 11.6072ZM9.37501 13.8393C8.63539 13.8393 8.03572 13.2396 8.03572 12.5C8.03572 11.7604 8.63539 11.1607 9.37501 11.1607C10.1146 11.1607 10.7143 11.7604 10.7143 12.5C10.7143 13.2396 10.1146 13.8393 9.37501 13.8393Z" fill="#303960"/>
</svg>
