<svg width="153" height="74" viewBox="0 0 153 74" fill="none" xmlns="http://www.w3.org/2000/svg">
<path d="M76.6621 26.876C75.6855 27.7061 74.5967 28.3457 73.3955 28.7949C72.1943 29.2344 70.9443 29.4541 69.6455 29.4541C68.6494 29.4541 67.6875 29.3223 66.7598 29.0586C65.8418 28.8047 64.9824 28.4434 64.1816 27.9746C63.3809 27.4961 62.6484 26.9297 61.9844 26.2754C61.3203 25.6113 60.7539 24.8789 60.2852 24.0781C59.8164 23.2676 59.4502 22.3984 59.1865 21.4707C58.9326 20.543 58.8057 19.5811 58.8057 18.585C58.8057 17.5889 58.9326 16.6318 59.1865 15.7139C59.4502 14.7959 59.8164 13.9365 60.2852 13.1357C60.7539 12.3252 61.3203 11.5928 61.9844 10.9385C62.6484 10.2744 63.3809 9.70801 64.1816 9.23926C64.9824 8.77051 65.8418 8.40918 66.7598 8.15527C67.6875 7.8916 68.6494 7.75977 69.6455 7.75977C70.9443 7.75977 72.1943 7.98437 73.3955 8.43359C74.5967 8.87305 75.6855 9.50781 76.6621 10.3379L74.4648 14C73.8301 13.3555 73.0977 12.8525 72.2676 12.4912C71.4375 12.1201 70.5635 11.9346 69.6455 11.9346C68.7275 11.9346 67.8633 12.1104 67.0527 12.4619C66.252 12.8135 65.5488 13.292 64.9434 13.8975C64.3379 14.4932 63.8594 15.1963 63.5078 16.0068C63.1562 16.8076 62.9805 17.667 62.9805 18.585C62.9805 19.5127 63.1562 20.3818 63.5078 21.1924C63.8594 22.0029 64.3379 22.7109 64.9434 23.3164C65.5488 23.9219 66.252 24.4004 67.0527 24.752C67.8633 25.1035 68.7275 25.2793 69.6455 25.2793C70.1729 25.2793 70.6855 25.2158 71.1836 25.0889C71.6816 24.9619 72.1553 24.7861 72.6045 24.5615V18.585H76.6621V26.876ZM78.6689 14.293C78.6689 13.4238 78.835 12.6084 79.167 11.8467C79.499 11.085 79.9482 10.4209 80.5146 9.85449C81.0908 9.27832 81.7598 8.82422 82.5215 8.49219C83.2832 8.16016 84.0986 7.99414 84.9678 7.99414H94.6064V12.1982H84.9678C84.6748 12.1982 84.4014 12.252 84.1475 12.3594C83.8936 12.4668 83.6689 12.6182 83.4736 12.8135C83.2881 12.999 83.1416 13.2188 83.0342 13.4727C82.9268 13.7266 82.873 14 82.873 14.293C82.873 14.5859 82.9268 14.8643 83.0342 15.1279C83.1416 15.3818 83.2881 15.6064 83.4736 15.8018C83.6689 15.9873 83.8936 16.1338 84.1475 16.2412C84.4014 16.3486 84.6748 16.4023 84.9678 16.4023H89.1719C90.041 16.4023 90.8564 16.5684 91.6182 16.9004C92.3896 17.2227 93.0586 17.6719 93.625 18.248C94.2012 18.8145 94.6504 19.4834 94.9727 20.2549C95.3047 21.0166 95.4707 21.832 95.4707 22.7012C95.4707 23.5703 95.3047 24.3857 94.9727 25.1475C94.6504 25.9092 94.2012 26.5781 93.625 27.1543C93.0586 27.7207 92.3896 28.1699 91.6182 28.502C90.8564 28.834 90.041 29 89.1719 29H79.8408V24.7959H89.1719C89.4648 24.7959 89.7383 24.7422 89.9922 24.6348C90.2461 24.5273 90.4658 24.3809 90.6514 24.1953C90.8467 24 90.998 23.7754 91.1055 23.5215C91.2129 23.2676 91.2666 22.9941 91.2666 22.7012C91.2666 22.4082 91.2129 22.1348 91.1055 21.8809C90.998 21.627 90.8467 21.4072 90.6514 21.2217C90.4658 21.0264 90.2461 20.875 89.9922 20.7676C89.7383 20.6602 89.4648 20.6064 89.1719 20.6064H84.9678C84.0986 20.6064 83.2832 20.4404 82.5215 20.1084C81.7598 19.7764 81.0908 19.3271 80.5146 18.7607C79.9482 18.1846 79.499 17.5156 79.167 16.7539C78.835 15.9824 78.6689 15.1621 78.6689 14.293ZM119.084 29H114.895V14C114.895 13.707 114.836 13.4336 114.719 13.1797C114.611 12.9258 114.46 12.7061 114.265 12.5205C114.079 12.3252 113.859 12.1738 113.605 12.0664C113.352 11.959 113.078 11.9053 112.785 11.9053C112.492 11.9053 112.219 11.959 111.965 12.0664C111.711 12.1738 111.486 12.3252 111.291 12.5205C111.105 12.7061 110.959 12.9258 110.852 13.1797C110.744 13.4336 110.69 13.707 110.69 14V29H106.486V14C106.486 13.707 106.433 13.4336 106.325 13.1797C106.218 12.9258 106.066 12.7061 105.871 12.5205C105.686 12.3252 105.466 12.1738 105.212 12.0664C104.958 11.959 104.685 11.9053 104.392 11.9053C104.099 11.9053 103.825 11.959 103.571 12.0664C103.317 12.1738 103.093 12.3252 102.897 12.5205C102.712 12.7061 102.565 12.9258 102.458 13.1797C102.351 13.4336 102.297 13.707 102.297 14V29H98.0928V14C98.0928 13.1309 98.2539 12.3154 98.5762 11.5537C98.9082 10.7822 99.3574 10.1133 99.9238 9.54688C100.5 8.9707 101.169 8.52148 101.931 8.19922C102.702 7.86719 103.522 7.70117 104.392 7.70117C105.173 7.70117 105.925 7.84277 106.647 8.12598C107.37 8.39941 108.02 8.7998 108.596 9.32715C109.172 8.7998 109.816 8.39941 110.529 8.12598C111.252 7.84277 112.004 7.70117 112.785 7.70117C113.654 7.70117 114.47 7.86719 115.231 8.19922C116.003 8.52148 116.672 8.9707 117.238 9.54688C117.814 10.1133 118.264 10.7822 118.586 11.5537C118.918 12.3154 119.084 13.1309 119.084 14V29ZM58.7178 51.293C58.7178 50.4238 58.8838 49.6084 59.2158 48.8467C59.5479 48.085 59.9971 47.4209 60.5635 46.8545C61.1396 46.2783 61.8086 45.8242 62.5703 45.4922C63.332 45.1602 64.1475 44.9941 65.0166 44.9941H74.6553V49.1982H65.0166C64.7236 49.1982 64.4502 49.252 64.1963 49.3594C63.9424 49.4668 63.7178 49.6182 63.5225 49.8135C63.3369 49.999 63.1904 50.2188 63.083 50.4727C62.9756 50.7266 62.9219 51 62.9219 51.293C62.9219 51.5859 62.9756 51.8643 63.083 52.1279C63.1904 52.3818 63.3369 52.6064 63.5225 52.8018C63.7178 52.9873 63.9424 53.1338 64.1963 53.2412C64.4502 53.3486 64.7236 53.4023 65.0166 53.4023H69.2207C70.0898 53.4023 70.9053 53.5684 71.667 53.9004C72.4385 54.2227 73.1074 54.6719 73.6738 55.248C74.25 55.8145 74.6992 56.4834 75.0215 57.2549C75.3535 58.0166 75.5195 58.832 75.5195 59.7012C75.5195 60.5703 75.3535 61.3857 75.0215 62.1475C74.6992 62.9092 74.25 63.5781 73.6738 64.1543C73.1074 64.7207 72.4385 65.1699 71.667 65.502C70.9053 65.834 70.0898 66 69.2207 66H59.8896V61.7959H69.2207C69.5137 61.7959 69.7871 61.7422 70.041 61.6348C70.2949 61.5273 70.5146 61.3809 70.7002 61.1953C70.8955 61 71.0469 60.7754 71.1543 60.5215C71.2617 60.2676 71.3154 59.9941 71.3154 59.7012C71.3154 59.4082 71.2617 59.1348 71.1543 58.8809C71.0469 58.627 70.8955 58.4072 70.7002 58.2217C70.5146 58.0264 70.2949 57.875 70.041 57.7676C69.7871 57.6602 69.5137 57.6064 69.2207 57.6064H65.0166C64.1475 57.6064 63.332 57.4404 62.5703 57.1084C61.8086 56.7764 61.1396 56.3271 60.5635 55.7607C59.9971 55.1846 59.5479 54.5156 59.2158 53.7539C58.8838 52.9824 58.7178 52.1621 58.7178 51.293ZM82.4922 49.1982V57.6064H86.6963C87.2725 57.6064 87.8145 57.499 88.3223 57.2842C88.8301 57.0596 89.2744 56.7568 89.6553 56.376C90.0361 55.9951 90.334 55.5508 90.5488 55.043C90.7734 54.5254 90.8857 53.9785 90.8857 53.4023C90.8857 52.8262 90.7734 52.2842 90.5488 51.7764C90.334 51.2588 90.0361 50.8096 89.6553 50.4287C89.2744 50.0479 88.8301 49.75 88.3223 49.5352C87.8145 49.3105 87.2725 49.1982 86.6963 49.1982H82.4922ZM82.4922 66H78.2881V44.9941H86.6963C87.4678 44.9941 88.21 45.0967 88.9229 45.3018C89.6357 45.4971 90.2998 45.7803 90.915 46.1514C91.54 46.5127 92.1064 46.9521 92.6143 47.4697C93.1318 47.9775 93.5713 48.5439 93.9326 49.1689C94.3037 49.7939 94.5869 50.4629 94.7822 51.1758C94.9873 51.8887 95.0898 52.6309 95.0898 53.4023C95.0898 54.5547 94.8701 55.6436 94.4307 56.6689C93.9912 57.6846 93.3906 58.5732 92.6289 59.335C91.8672 60.0967 90.9736 60.6973 89.9482 61.1367C88.9326 61.5762 87.8486 61.7959 86.6963 61.7959H82.4922V66ZM109.929 57.6064V53.4023C109.929 52.8262 109.816 52.2842 109.592 51.7764C109.377 51.2588 109.079 50.8096 108.698 50.4287C108.317 50.0479 107.868 49.75 107.351 49.5352C106.843 49.3105 106.301 49.1982 105.725 49.1982C105.148 49.1982 104.602 49.3105 104.084 49.5352C103.576 49.75 103.132 50.0479 102.751 50.4287C102.37 50.8096 102.067 51.2588 101.843 51.7764C101.628 52.2842 101.521 52.8262 101.521 53.4023V57.6064H109.929ZM114.133 66H109.929V61.7959H101.521V66H97.3311V53.4023C97.3311 52.2402 97.5508 51.1514 97.9902 50.1357C98.4297 49.1104 99.0254 48.2168 99.7773 47.4551C100.539 46.6934 101.428 46.0928 102.443 45.6533C103.469 45.2139 104.562 44.9941 105.725 44.9941C106.887 44.9941 107.976 45.2139 108.991 45.6533C110.017 46.0928 110.91 46.6934 111.672 47.4551C112.434 48.2168 113.034 49.1104 113.474 50.1357C113.913 51.1514 114.133 52.2402 114.133 53.4023V66ZM134.553 63.8467C133.576 64.6865 132.482 65.3311 131.271 65.7803C130.061 66.2295 128.806 66.4541 127.507 66.4541C126.511 66.4541 125.549 66.3223 124.621 66.0586C123.703 65.8047 122.839 65.4434 122.028 64.9746C121.228 64.4961 120.495 63.9248 119.831 63.2607C119.167 62.5967 118.596 61.8643 118.117 61.0635C117.648 60.2529 117.282 59.3887 117.019 58.4707C116.765 57.543 116.638 56.5811 116.638 55.585C116.638 54.5889 116.765 53.627 117.019 52.6992C117.282 51.7715 117.648 50.9072 118.117 50.1064C118.596 49.2959 119.167 48.5586 119.831 47.8945C120.495 47.2305 121.228 46.6641 122.028 46.1953C122.839 45.7168 123.703 45.3506 124.621 45.0967C125.549 44.833 126.511 44.7012 127.507 44.7012C128.806 44.7012 130.061 44.9258 131.271 45.375C132.482 45.8145 133.576 46.459 134.553 47.3086L132.326 50.9707C131.711 50.3066 130.983 49.7988 130.144 49.4473C129.304 49.0859 128.425 48.9053 127.507 48.9053C126.579 48.9053 125.71 49.0811 124.899 49.4326C124.089 49.7842 123.381 50.2627 122.775 50.8682C122.17 51.4639 121.691 52.1719 121.34 52.9922C120.988 53.8027 120.812 54.667 120.812 55.585C120.812 56.5029 120.988 57.3672 121.34 58.1777C121.691 58.9785 122.17 59.6816 122.775 60.2871C123.381 60.8926 124.089 61.3711 124.899 61.7227C125.71 62.0742 126.579 62.25 127.507 62.25C128.425 62.25 129.304 62.0742 130.144 61.7227C130.983 61.3613 131.711 60.8486 132.326 60.1846L134.553 63.8467ZM151.398 66H136.999V44.9941H151.398V49.1982H141.203V53.4023H148.103V57.6064H141.203V61.7959H151.398V66Z" fill="#303960"/>
<path d="M40.1343 33.4659C44.3407 30.129 45.9778 27.2816 45.0001 25.0025C44.7439 24.4052 44.3325 23.9113 43.7701 23.5203C43.7704 23.5039 43.7715 23.488 43.7715 23.4716C43.7715 21.5544 42.2175 20 40.3 20C38.7102 20 37.3712 21.069 36.9596 22.5268C35.1795 22.6935 33.1454 23.056 30.9415 23.6032C28.5979 21.832 25.6995 20.8177 22.6312 20.8177C20.7621 20.8177 18.9371 21.1941 17.2064 21.9365C13.8249 23.3872 11.2107 26.0676 9.84524 29.4843C9.38312 30.641 9.08333 31.8351 8.94446 33.04C6.10489 34.8483 3.8153 36.6652 2.29588 38.3201C0.242395 40.5567 -0.438289 42.5313 0.272802 44.1892C1.01022 45.9081 3.00656 46.772 6.22407 46.772C7.2729 46.772 8.45163 46.6802 9.75881 46.4962C11.1857 46.2953 12.7212 45.99 14.3335 45.5896C16.6767 47.3601 19.5744 48.3739 22.6421 48.3739C24.511 48.3739 26.3365 47.9974 28.067 47.255C32.7645 45.24 35.7689 40.9058 36.3196 36.1594C37.7224 35.2658 39.0041 34.3624 40.1343 33.4659ZM38.2318 31.0676C37.6203 31.5529 36.9594 32.0407 36.2565 32.5283C36.0846 31.3953 35.7681 30.2662 35.2958 29.1651C34.8268 28.0722 34.2274 27.063 33.5213 26.1517C35.088 25.8261 36.4133 25.6396 37.5199 25.5514C38.1532 26.3964 39.1625 26.9433 40.2997 26.9433C41.0031 26.9433 41.657 26.7334 42.2037 26.3739C42.1674 26.9064 41.5055 28.4709 38.2318 31.0676ZM12.6874 30.6199C13.7493 27.9626 15.7825 25.8778 18.4125 24.7495C19.7596 24.1718 21.1787 23.8786 22.6306 23.8786C26.9234 23.8786 30.7903 26.4275 32.4824 30.3719C33.0458 31.6852 33.3244 33.0501 33.3476 34.3979C30.7178 35.9722 27.6997 37.5029 24.4766 38.8855C21.2527 40.2685 18.0632 41.4003 15.1096 42.2209C14.1424 41.2658 13.3477 40.1186 12.7903 38.8191C11.662 36.1893 11.6255 33.2773 12.6874 30.6199ZM9.33189 43.4648C4.60394 44.1302 3.20216 43.2538 3.08574 42.9823C2.86728 42.4735 3.98774 40.1449 9.01283 36.666C9.18853 37.8083 9.50934 38.9361 9.97697 40.0263C10.4459 41.1197 11.0454 42.1287 11.7517 43.0403C10.9137 43.2135 10.105 43.3561 9.33189 43.4648ZM26.86 44.4417C25.5127 45.0196 24.0938 45.3125 22.6419 45.3125C21.1475 45.3125 19.7052 45.0029 18.3877 44.4339C20.7517 43.6791 23.2116 42.7589 25.6833 41.6985C28.1514 40.6399 30.5094 39.4935 32.6827 38.303C31.6991 40.9662 29.6688 43.2371 26.86 44.4417Z" fill="#303960"/>
<path d="M40.2996 43.4553C37.3467 43.4553 34.9442 45.8576 34.9442 48.8105C34.9442 51.7632 37.3467 54.1657 40.2996 54.1657C43.2523 54.1657 45.6548 51.7632 45.6548 48.8105C45.6549 45.8576 43.2526 43.4553 40.2996 43.4553Z" fill="#303960"/>
<path d="M7.47165 25.7032C8.71644 25.7032 9.72553 24.6941 9.72553 23.4493C9.72553 22.2045 8.71644 21.1954 7.47165 21.1954C6.22687 21.1954 5.21777 22.2045 5.21777 23.4493C5.21777 24.6941 6.22687 25.7032 7.47165 25.7032Z" fill="#303960"/>
</svg>
