<svg width="30" height="30" viewBox="0 0 30 30" fill="none" xmlns="http://www.w3.org/2000/svg">
<path d="M2.89381 2.75049C1.29558 2.75049 0 4.05137 0 5.64429C0 7.23721 1.30088 8.5381 2.89381 8.5381C4.00354 8.5381 5.00177 7.91155 5.48496 6.92925C6.72212 7.15226 7.27965 8.2673 7.51327 9.00005C6.63717 10.4231 6.17522 12.0266 6.17522 13.6461V24.6054V24.6319L6.18053 24.6638C6.18053 24.6638 6.22301 24.8284 6.22301 24.8974C6.22301 26.2514 7.32212 27.2337 8.8354 27.2337C9.54159 27.2337 10.2 26.9257 10.6938 26.3841C11.1823 26.931 11.8832 27.2496 12.6319 27.2496C13.4655 27.2496 14.5168 27.1434 15.0053 26.3735C15.4566 27.1222 16.4283 27.239 17.2885 27.239C18.1062 27.239 18.8655 26.8461 19.354 26.1983C19.8372 26.8248 20.5858 27.1965 21.3822 27.1965C22.7575 27.1965 23.5116 26.3681 23.5116 24.8708C23.5116 24.7752 23.469 24.6478 23.4319 24.5576V13.6514C23.4319 11.4691 22.954 9.74872 21.9663 8.39474C22.4071 7.56111 23.315 7.08323 24.4884 7.07792C24.9983 7.95934 26.0177 8.54341 27.0691 8.54341C28.6831 8.54341 30 7.24252 30 5.6496C30 4.05668 28.7151 2.7558 27.1381 2.7558C25.8956 2.7558 24.7965 3.55226 24.3982 4.71509C22.8053 4.77881 21.4566 5.46376 20.5647 6.67438C19.0089 5.45314 17.0708 4.77881 15.085 4.77881C12.9186 4.77881 10.8478 5.56465 9.2177 7.00359C8.41062 5.64429 7.10442 4.7735 5.57522 4.59297C5.15044 3.48323 4.0885 2.75049 2.89381 2.75049ZM17.7505 20.6443H12.8814C12.5416 20.6443 12.2708 20.3682 12.2708 20.0337V19.7363C12.2708 19.3965 12.5469 19.1257 12.8814 19.1257H17.7505C18.0902 19.1257 18.3611 19.4018 18.3611 19.7363V20.0337C18.3611 20.3682 18.085 20.6443 17.7505 20.6443ZM19.0885 17.1027C17.7185 17.1027 16.6089 15.993 16.6089 14.6231C16.6089 13.2532 17.7185 12.1435 19.0885 12.1435C20.4585 12.1435 21.5681 13.2532 21.5681 14.6231C21.5628 15.993 20.453 17.1027 19.0885 17.1027ZM14.8885 12.4301C13.5186 12.4301 12.4088 11.3204 12.4088 9.95049C12.4088 8.58058 13.5186 7.47084 14.8885 7.47084C16.2584 7.47084 17.3681 8.58058 17.3681 9.95049C17.3681 11.3204 16.2584 12.4301 14.8885 12.4301ZM11.1611 12.1487C12.531 12.1487 13.6407 13.2585 13.6407 14.6284C13.6407 15.9983 12.531 17.108 11.1611 17.108C9.79115 17.108 8.68142 15.9983 8.68142 14.6284C8.68142 13.2585 9.79115 12.1487 11.1611 12.1487Z" fill="white"/>
<path d="M14.8886 11.4107C15.7097 11.4107 16.3753 10.7451 16.3753 9.92398C16.3753 9.10289 15.7097 8.43726 14.8886 8.43726C14.0675 8.43726 13.4019 9.10289 13.4019 9.92398C13.4019 10.7451 14.0675 11.4107 14.8886 11.4107Z" fill="white"/>
<path d="M11.161 16.0832C11.9821 16.0832 12.6478 15.4176 12.6478 14.5965C12.6478 13.7754 11.9821 13.1097 11.161 13.1097C10.3399 13.1097 9.67432 13.7754 9.67432 14.5965C9.67432 15.4176 10.3399 16.0832 11.161 16.0832Z" fill="white"/>
<path d="M19.0885 16.0832C19.9096 16.0832 20.5753 15.4176 20.5753 14.5965C20.5753 13.7754 19.9096 13.1097 19.0885 13.1097C18.2674 13.1097 17.6018 13.7754 17.6018 14.5965C17.6018 15.4176 18.2674 16.0832 19.0885 16.0832Z" fill="white"/>
</svg>
