<svg width="30" height="30" viewBox="0 0 30 30" fill="none" xmlns="http://www.w3.org/2000/svg">
<path d="M10.7378 19.2506L12.0092 23.8212C12.024 23.876 12.056 23.9242 12.0994 23.9608L16.0087 27.2117C16.0595 27.2536 16.1222 27.2758 16.1863 27.2758C16.2139 27.2758 16.2405 27.2718 16.2676 27.2635C16.3574 27.2359 16.4269 27.1654 16.4531 27.0756L17.796 22.4606C18.7744 22.5001 19.6379 22.2761 20.3485 21.7879L22.1279 23.2497C22.2408 23.3418 22.4051 23.3324 22.5061 23.2265L23.8273 21.8363C23.8786 21.7825 23.9058 21.71 23.9033 21.635C23.9008 21.5606 23.8682 21.4901 23.813 21.4397L22.0515 19.8242C22.2019 19.4139 22.4716 18.3915 22.1856 16.8361L26.7128 15.1831C26.8011 15.151 26.8667 15.0765 26.8879 14.9853C26.9096 14.8941 26.883 14.7984 26.8184 14.7303L23.313 11.0474C23.272 11.0045 23.2193 10.9758 23.1606 10.965L18.5432 10.1395C17.6742 9.13491 16.6632 8.11847 15.5373 7.11642C9.05413 1.34737 3.98642 0.486267 1.54281 0.486267C0.738488 0.486267 0.29512 0.583945 0.276399 0.587865C0.166395 0.612516 0.0825898 0.701273 0.0633533 0.812256C0.01405 1.09926 -1.04035 7.93843 7.85977 16.8385C7.87158 16.8498 9.0645 18.0063 10.7378 19.2506ZM11.1585 14.2756C9.60998 14.2756 8.35486 13.0205 8.35486 11.472C8.35486 9.92346 9.60993 8.66839 11.1585 8.66839C12.7071 8.66839 13.9621 9.92346 13.9621 11.472C13.9621 13.0205 12.707 14.2756 11.1585 14.2756Z" fill="white"/>
<path d="M21.7101 24.305C21.65 24.2459 21.5627 24.2223 21.4803 24.2424C21.398 24.2627 21.3319 24.3233 21.3052 24.4031L20.6676 26.2974C20.637 26.3882 20.6617 26.4883 20.7307 26.5543L23.7548 29.4447C23.8011 29.4887 23.8618 29.5133 23.9255 29.5133H26.4747C26.5752 29.5133 26.6655 29.4522 26.7035 29.3594C26.741 29.2662 26.7183 29.1597 26.6463 29.0897L21.7101 24.305Z" fill="white"/>
<path d="M25.0874 22.7604C25.0406 22.7115 24.976 22.6089 24.9089 22.6089C24.9069 22.6089 24.905 22.6089 24.9025 22.6089C24.8329 22.6089 24.7679 22.7164 24.7225 22.7692L23.6262 24.1126C23.5424 24.2097 23.5468 24.3547 23.6365 24.4464L28.5227 29.4397C28.5691 29.487 28.6327 29.5137 28.6988 29.5137H29.5066H29.7532C29.8893 29.5137 29.9997 29.4032 29.9997 29.2672V28.0865C29.9997 28.0233 29.975 27.9247 29.9317 27.8788L25.0874 22.7604Z" fill="white"/>
<path d="M29.9254 23.3681L26.3948 19.9267C26.3129 19.8463 26.1862 19.834 26.091 19.8952L24.6455 20.8105C24.5819 20.851 24.5405 20.9174 24.5326 20.992C24.5247 21.0664 24.5509 21.1409 24.6042 21.1937L29.5802 26.1292C29.6275 26.1761 29.6906 26.2007 29.7543 26.2007C29.7858 26.2007 29.8184 26.1944 29.849 26.1815C29.9402 26.1435 29.9999 26.0537 29.9999 25.9542V23.5442C29.9998 23.4781 29.9727 23.4139 29.9254 23.3681Z" fill="white"/>
</svg>
