<svg width="40" height="40" viewBox="0 0 40 40" fill="none" xmlns="http://www.w3.org/2000/svg">
<path d="M20 0C8.99329 0 0 8.94855 0 20C0 31.0067 8.94855 40 20 40C31.0515 40 40 31.0067 40 20C40 8.99329 31.0067 0 20 0ZM20 10.2461C23.4004 10.2461 26.2192 13.0201 26.2192 16.4653C26.2192 19.8658 23.4452 22.6846 20 22.6846C16.5548 22.6846 13.7808 19.8658 13.7808 16.4206C13.7808 13.0201 16.5996 10.2461 20 10.2461ZM20 35.8837C16.1969 35.8837 12.7069 34.5414 9.97763 32.3042C12.8412 29.1723 16.3311 27.4273 20 27.4273C23.6689 27.4273 27.2036 29.1275 30.0224 32.3042C27.2931 34.5414 23.8031 35.8837 20 35.8837Z" fill="white"/>
</svg>
