<svg width="25" height="25" viewBox="0 0 25 25" fill="none" xmlns="http://www.w3.org/2000/svg">
<path d="M24.4929 22.05L19.2096 16.766C20.4937 14.98 21.1997 12.8456 21.1997 10.599C21.1997 7.76908 20.0979 5.10767 18.094 3.10556C16.0944 1.10431 13.4312 0 10.5995 0C7.7686 0 5.10623 1.10172 3.10491 3.10556C1.1036 5.10594 0.000976562 7.76822 0.000976562 10.599C0.000976562 13.4298 1.10274 16.0912 3.10491 18.0942C5.10623 20.0954 7.76773 21.1997 10.5995 21.1997C12.8453 21.1997 14.978 20.4972 16.7659 19.2097L22.0491 24.4936C22.3879 24.8315 22.8286 25 23.271 25C23.7143 25 24.1559 24.8315 24.4929 24.4936C25.1678 23.8179 25.1678 22.7248 24.4929 22.05ZM5.54952 15.6496C4.19976 14.2999 3.45748 12.5052 3.45748 10.5981C3.45748 8.69107 4.19976 6.89807 5.54952 5.54836C6.89842 4.19864 8.69148 3.45552 10.5995 3.45552C12.5075 3.45552 14.3014 4.19864 15.6503 5.54836C17 6.89807 17.7432 8.69193 17.7432 10.599C17.7432 12.506 17.0009 14.2999 15.6503 15.6505C14.3005 17.0002 12.5083 17.7416 10.5995 17.7416C8.69062 17.7416 6.89669 16.9985 5.54952 15.6496Z" fill="#303960"/>
</svg>
